<?xml version="1.0" standalone="no"?><!DOCTYPE svg PUBLIC "-//W3C//DTD SVG 1.1//EN" "http://www.w3.org/Graphics/SVG/1.1/DTD/svg11.dtd"><svg t="1631965366423" class="icon" viewBox="0 0 1035 1024" version="1.1" xmlns="http://www.w3.org/2000/svg" p-id="921" xmlns:xlink="http://www.w3.org/1999/xlink" width="202.1484375" height="200"><defs><style type="text/css"></style></defs><path d="M174.24 300.96H141.12a3.84 3.84 0 0 0-3.84 3.84v437.44l40.8 40.8V304.8a3.84 3.84 0 0 0-3.84-3.84zM246.08 300.96h-33.12a3.84 3.84 0 0 0-3.84 3.84v509.12l40.8 40.8V304.8a3.84 3.84 0 0 0-3.84-3.84z" fill="#1296db" p-id="922"></path><path d="M321.6 259.04l335.68 0 0 41.92-335.68 0 0-41.92Z" fill="#1296db" p-id="923"></path><path d="M321.6 183.84l335.68 0 0 41.92-335.68 0 0-41.92Z" fill="#1296db" p-id="924"></path><path d="M325.44 108a3.84 3.84 0 0 0-3.84 4v35.2a3.84 3.84 0 0 0 3.84 3.84h370.72V112a3.84 3.84 0 0 1 2.56-3.52zM876.64 454.88h-33.12a3.84 3.84 0 0 0-3.84 3.84V784L880 742.72V458.72a3.84 3.84 0 0 0-3.36-3.84zM804.8 454.88h-33.12a3.84 3.84 0 0 0-3.84 3.84v396.64l40.8-40.8V458.72a3.84 3.84 0 0 0-3.84-3.84zM733.12 454.88H321.6v-150.08a3.84 3.84 0 0 0-3.84-3.84h-33.12a3.84 3.84 0 0 0-3.84 3.84v580.8l31.2 31.2 7.04 7.04a3.84 3.84 0 0 0 2.56-3.52V577.28h374.56v343.68a3.84 3.84 0 0 0 2.56 3.52l7.04-7.04 31.2-31.2V458.72a3.84 3.84 0 0 0-3.84-3.84z m-36.96 81.6H321.6V496h374.56v40.8zM880 289.92l-40.8-40.8v161.44a3.84 3.84 0 0 0 3.84 3.84h33.12a3.84 3.84 0 0 0 3.84-3.84v-21.12zM768 389.44v21.28a3.84 3.84 0 0 0 3.84 3.84h32.96a3.84 3.84 0 0 0 3.84-3.84v-192L768 177.44z" fill="#1296db" p-id="925"></path><path d="M698.72 108.32a3.84 3.84 0 0 0-2.56 3.52v298.88a3.84 3.84 0 0 0 3.84 3.84h33.12a3.84 3.84 0 0 0 3.84-3.84V146.56l-31.2-31.2z" fill="#1296db" p-id="926"></path></svg>
